<svg width="81" height="75" viewBox="0 0 81 75" fill="none" xmlns="http://www.w3.org/2000/svg">
<path d="M22.0714 15.0034H57.1026C58.3825 15.0034 59.4281 13.9621 59.4281 12.6778C59.4281 11.3979 58.3868 10.3523 57.1026 10.3523H22.0714C20.7915 10.3523 19.7458 11.3936 19.7458 12.6778C19.7458 13.9621 20.7872 15.0034 22.0714 15.0034Z" fill="#499557"/>
<path d="M22.0714 31.4907H42.4896C43.7696 31.4907 44.8152 30.4494 44.8152 29.1651C44.8152 27.8852 43.7739 26.8395 42.4896 26.8395H22.0714C20.7915 26.8395 19.7458 27.8808 19.7458 29.1651C19.7458 30.445 20.7872 31.4907 22.0714 31.4907Z" fill="#499557"/>
<path d="M57.0982 43.3268H22.0714C20.7915 43.3268 19.7458 44.3681 19.7458 45.6524C19.7458 46.9324 20.7872 47.978 22.0714 47.978H57.1026C58.3825 47.978 59.4281 46.9367 59.4281 45.6524C59.4238 44.3681 58.3825 43.3268 57.0982 43.3268Z" fill="#499557"/>
<path d="M57.0983 59.8098H36.6801C35.4001 59.8098 34.3545 60.8511 34.3545 62.1354C34.3545 63.4153 35.3958 64.4609 36.6801 64.4609H57.0983C58.3782 64.4609 59.4238 63.4196 59.4238 62.1354C59.4238 60.8511 58.3825 59.8098 57.0983 59.8098Z" fill="#499557"/>
<path d="M80.8356 25.9371C80.4798 22.5138 78.8137 19.429 76.141 17.2596C74.4489 15.8842 72.4835 14.9817 70.3965 14.5912V2.38632C70.3965 1.06733 69.3292 0 68.0102 0H11.1595C9.84047 0 8.77313 1.06733 8.77313 2.38632V44.3248C7.08969 44.6936 5.50171 45.4485 4.12198 46.5679C1.80943 48.4466 0.364619 51.1149 0.0609063 54.0783C-0.247146 57.0417 0.620606 59.9486 2.49929 62.2612C4.10897 64.244 6.34777 65.5717 8.77313 66.1097V71.9626C8.77313 73.2816 9.84047 74.349 11.1595 74.349H68.0145C69.3335 74.349 70.4009 73.2816 70.4009 71.9626V39.9166C73.3469 39.3525 76.076 37.7819 78.0197 35.3913C80.1891 32.7186 81.187 29.3604 80.8356 25.9371ZM4.85523 60.3478C3.48853 58.6643 2.85507 56.5514 3.08068 54.3907C3.30196 52.2343 4.35194 50.2905 6.03538 48.9238C7.71882 47.5571 9.83179 46.9237 11.9925 47.1493C14.1489 47.3706 16.0926 48.4205 17.4593 50.104C19.4204 52.5207 19.8283 55.8962 18.492 58.7121C18.0147 59.723 18.2837 61.1027 18.6004 62.7081C18.7176 63.3112 18.8955 64.2093 18.9388 64.808C18.3531 64.6475 17.494 64.2874 16.9213 64.0487C15.6761 63.5281 14.5741 63.0682 13.6152 63.0682C13.4156 63.0682 13.2204 63.0899 13.0338 63.1333C9.96629 63.8492 6.83805 62.7862 4.85523 60.3478ZM13.5458 69.572V66.1227C13.5805 66.114 13.6195 66.1097 13.6542 66.101C14.0317 66.1314 15.06 66.5609 15.7455 66.8473C17.0645 67.3983 18.3401 67.9319 19.4421 67.9319C20.0322 67.9319 20.5746 67.7801 21.0475 67.3939C22.3968 66.2962 22.002 64.27 21.5812 62.1223C21.438 61.3978 21.2254 60.3174 21.2731 59.9399C21.8285 58.7511 22.1539 57.4885 22.2667 56.213H57.1026C58.3825 56.213 59.4281 55.1716 59.4281 53.8874C59.4281 52.6074 58.3868 51.5618 57.1026 51.5618H22.0714C21.9456 51.5618 21.8241 51.5792 21.7026 51.6009C21.2861 50.3773 20.6527 49.2189 19.8153 48.1862C18.2013 46.1991 16.0058 44.8584 13.5414 44.3248V4.77263H65.6239V14.5956C62.7299 15.1379 60.1354 16.6348 58.209 18.8953C57.8792 18.7131 57.5017 18.6003 57.0982 18.6003H22.0714C20.7915 18.6003 19.7459 19.6416 19.7459 20.9258C19.7459 22.2058 20.7872 23.2514 22.0714 23.2514H55.7749C54.7727 26.3276 54.9288 29.7422 56.3433 32.7533C56.4257 33.1872 56.148 34.6059 55.9832 35.4563C55.5016 37.9077 55.0503 40.2203 56.5168 41.4134C57.0158 41.8213 57.6015 41.9818 58.2437 41.9818C59.4932 41.9818 60.9684 41.3657 62.4956 40.7279C63.307 40.3895 64.652 39.8255 65.0946 39.8255C65.2724 39.8689 65.4503 39.8949 65.6282 39.9296V69.5807H13.5458V69.572ZM75.6594 33.4779C73.2905 36.3892 69.3986 37.7168 65.741 36.8577C64.5479 36.5757 63.051 37.2005 61.3198 37.9251C60.5606 38.2418 59.2546 38.7885 58.5474 38.9187C58.5344 38.2071 58.8034 36.8404 58.9596 36.0421C59.337 34.1243 59.6321 32.6058 59.1071 31.4994C57.4887 28.0848 57.979 23.9847 60.361 21.0517C62.0227 19.0081 64.3787 17.7368 66.9949 17.4635C67.3377 17.4288 67.6848 17.4114 68.0276 17.4114C70.2837 17.4114 72.4488 18.1794 74.2233 19.6199C76.2669 21.2816 77.5381 23.6376 77.8115 26.2538C78.0848 28.8658 77.3212 31.4343 75.6594 33.4779Z" fill="#499557"/>
<path d="M70.5657 20.9302C69.8585 20.5917 69.0384 20.4182 68.123 20.4182C67.1337 20.4182 66.2573 20.6264 65.5154 21.0299C64.7691 21.4378 64.1964 21.9584 63.8059 22.5832C63.4154 23.208 63.2158 23.8371 63.2158 24.4532C63.2158 24.7786 63.3503 25.0867 63.6193 25.36C63.8883 25.6377 64.2224 25.7765 64.6129 25.7765C65.2767 25.7765 65.7323 25.3861 65.9623 24.6181C66.1749 23.976 66.4395 23.4857 66.7432 23.1603C67.0296 22.8522 67.4938 22.696 68.1273 22.696C68.6696 22.696 69.0992 22.8479 69.4419 23.1646C69.776 23.477 69.9409 23.8458 69.9409 24.297C69.9409 24.5226 69.8888 24.7309 69.7804 24.9218C69.6676 25.1257 69.5287 25.308 69.3638 25.4728C69.1903 25.6464 68.9039 25.9067 68.5134 26.2495C68.0579 26.6486 67.6934 26.9957 67.4244 27.2864C67.1467 27.5858 66.9211 27.9416 66.7562 28.3364C66.587 28.7356 66.5003 29.2085 66.5003 29.7509C66.5003 30.2108 66.6261 30.5622 66.8777 30.8052C67.1294 31.0438 67.4374 31.1653 67.8019 31.1653C68.4961 31.1653 68.9343 30.7835 69.0645 30.0719C69.1295 29.7725 69.1816 29.5643 69.2163 29.4471C69.2467 29.3387 69.2901 29.2259 69.3465 29.1174C69.4029 29.0089 69.4897 28.8874 69.6068 28.7529C69.7283 28.6141 69.8932 28.4492 70.0971 28.2627C70.8477 27.5901 71.3814 27.0999 71.6851 26.8048C71.9888 26.5055 72.2535 26.1497 72.4747 25.7418C72.7003 25.3253 72.8132 24.835 72.8132 24.284C72.8132 23.5898 72.6136 22.9347 72.2274 22.3403C71.8326 21.7458 71.2772 21.2729 70.5657 20.9302Z" fill="#499557"/>
<path d="M67.9017 32.0591C67.4635 32.0591 67.0903 32.2109 66.7866 32.506C66.4829 32.801 66.3311 33.1741 66.3311 33.6037C66.3311 34.0896 66.4916 34.4758 66.8083 34.7535C67.1207 35.0225 67.4852 35.1613 67.9017 35.1613C68.3052 35.1613 68.6653 35.0225 68.9734 34.7491C69.2857 34.4714 69.4463 34.0853 69.4463 33.608C69.4463 33.1741 69.2944 32.8053 68.9994 32.5103C68.7 32.2109 68.3312 32.0591 67.9017 32.0591Z" fill="#499557"/>
<path d="M11.2505 51.3622C11.7104 51.3622 12.0749 51.4924 12.3612 51.757C12.6476 52.0217 12.7864 52.3341 12.7864 52.7159C12.7864 52.9068 12.7387 53.0847 12.6519 53.2452C12.5565 53.4144 12.4393 53.575 12.2962 53.7138C12.1486 53.8613 11.91 54.0826 11.5759 54.3733C11.1898 54.7117 10.8817 55.0068 10.6561 55.2497C10.4218 55.5057 10.2309 55.8051 10.0877 56.1392C9.94456 56.4776 9.8708 56.8811 9.8708 57.3367C9.8708 57.7228 9.97927 58.0265 10.1919 58.2305C10.4045 58.4344 10.6691 58.5342 10.9772 58.5342C11.5673 58.5342 11.936 58.2131 12.0489 57.61C12.1053 57.3584 12.1486 57.1805 12.1747 57.0807C12.2007 56.9852 12.2398 56.8941 12.2875 56.7987C12.3352 56.7076 12.409 56.6034 12.5088 56.4863C12.6129 56.3691 12.7517 56.2303 12.9253 56.0698C13.5631 55.5014 14.0143 55.0849 14.2703 54.8376C14.5263 54.5859 14.7519 54.2822 14.9385 53.9351C15.1294 53.5793 15.2248 53.1671 15.2248 52.6986C15.2248 52.1085 15.0556 51.5531 14.7259 51.0498C14.3961 50.5509 13.9232 50.1474 13.3245 49.8567C12.7257 49.5703 12.0315 49.4228 11.2549 49.4228C10.4175 49.4228 9.67556 49.5963 9.0421 49.9434C8.41298 50.2905 7.9227 50.7331 7.59295 51.2624C7.25887 51.7918 7.09399 52.3254 7.09399 52.8504C7.09399 53.1281 7.21114 53.3841 7.43676 53.6184C7.66237 53.8527 7.94873 53.9698 8.27847 53.9698C8.84251 53.9698 9.22866 53.6401 9.42391 52.9892C9.60613 52.4469 9.82741 52.0304 10.0834 51.757C10.322 51.4924 10.7169 51.3622 11.2505 51.3622Z" fill="#499557"/>
<path d="M12.3742 60.5994C12.3742 60.235 12.2484 59.9182 11.9968 59.6666C11.7451 59.415 11.4327 59.2891 11.0639 59.2891C10.6908 59.2891 10.3741 59.415 10.1181 59.6666C9.8621 59.9182 9.73193 60.2306 9.73193 60.5994C9.73193 61.0116 9.86644 61.337 10.1354 61.5713C10.4001 61.8013 10.7125 61.9141 11.0639 61.9141C11.4067 61.9141 11.7104 61.7969 11.9751 61.567C12.2397 61.3327 12.3742 61.0073 12.3742 60.5994Z" fill="#499557"/>
</svg>
