<?xml version="1.0" standalone="no"?>
<!DOCTYPE svg PUBLIC "-//W3C//DTD SVG 20010904//EN"
 "http://www.w3.org/TR/2001/REC-SVG-20010904/DTD/svg10.dtd">
<svg version="1.0" xmlns="http://www.w3.org/2000/svg"
 width="425.000000pt" height="136.000000pt" viewBox="0 0 425.000000 136.000000"
 preserveAspectRatio="xMidYMid meet">
<metadata>
Created by potrace 1.16, written by Peter Selinger 2001-2019
</metadata>
<g transform="translate(0.000000,136.000000) scale(0.100000,-0.100000)"
fill="#000000" stroke="none">
<path d="M2006 824 c-22 -22 -21 -26 24 -82 l39 -50 -70 -87 c-38 -48 -68 -92
-66 -98 5 -17 33 -31 50 -24 9 3 42 38 74 77 l58 71 41 -47 c33 -37 45 -45 62
-40 32 11 27 46 -13 97 -19 24 -35 48 -35 52 0 5 19 31 42 58 34 40 40 53 32
67 -21 33 -50 26 -90 -22 l-37 -45 -40 45 c-43 49 -49 51 -71 28z"/>
<path d="M2932 740 c-583 -4 -674 -7 -682 -20 -6 -10 -5 -20 5 -30 13 -12 143
-14 948 -15 1003 0 972 -2 965 49 -3 21 -7 21 -283 21 -154 0 -583 -2 -953 -5z"/>
<path d="M1520 719 c-157 -3 -530 -7 -831 -8 -409 -1 -548 -4 -557 -13 -15
-15 -16 -45 -1 -54 27 -16 1782 15 1811 32 14 9 9 42 -8 48 -9 3 -41 5 -72 4
-31 -1 -185 -5 -342 -9z"/>
</g>
</svg>
