<svg width="80" height="75" viewBox="0 0 80 75" fill="none" xmlns="http://www.w3.org/2000/svg">
<path d="M76.7396 37.3567H61.6104V2.38632C61.6104 1.06733 60.543 0 59.2241 0H2.38632C1.06733 0 0 1.06733 0 2.38632V66.0185C0 70.609 3.73567 74.349 8.33042 74.349H67.984C74.1277 74.349 79.1259 69.3507 79.1259 63.207V39.743C79.1259 38.424 78.0543 37.3567 76.7396 37.3567ZM8.33042 69.572C6.3693 69.572 4.77263 67.9753 4.77263 66.0142V4.77263H56.8377V63.2027C56.8377 65.5717 57.5797 67.7671 58.8422 69.572H8.33042ZM74.3533 63.2027C74.3533 66.7171 71.4941 69.572 67.984 69.572C64.4696 69.572 61.6147 66.7127 61.6147 63.2027V42.1293H74.3576V63.2027H74.3533Z" fill="#499557"/>
<path d="M48.7546 32.2587H13.7278C12.565 32.2587 11.6191 33.2002 11.6191 34.3673C11.6191 35.5344 12.5607 36.4759 13.7278 36.4759H48.7589C49.9217 36.4759 50.8675 35.5344 50.8675 34.3673C50.8675 33.2002 49.9174 32.2587 48.7546 32.2587Z" fill="#499557"/>
<path d="M48.7546 11.5888H13.7278C12.565 11.5888 11.6191 12.5303 11.6191 13.6975V24.5314C11.6191 25.6941 12.5607 26.64 13.7278 26.64H48.7589C49.9217 26.64 50.8675 25.6985 50.8675 24.5314V13.6975C50.8632 12.5303 49.9174 11.5888 48.7546 11.5888Z" fill="#499557"/>
<path d="M48.7546 40.9666H13.7278C12.565 40.9666 11.6191 41.9081 11.6191 43.0752C11.6191 44.2423 12.5607 45.1838 13.7278 45.1838H48.7589C49.9217 45.1838 50.8675 44.2423 50.8675 43.0752C50.8675 41.9081 49.9174 40.9666 48.7546 40.9666Z" fill="#499557"/>
<path d="M48.7546 49.6788H13.7278C12.565 49.6788 11.6191 50.6203 11.6191 51.7874C11.6191 52.9545 12.5607 53.896 13.7278 53.896H48.7589C49.9217 53.896 50.8675 52.9545 50.8675 51.7874C50.8675 50.6203 49.9174 49.6788 48.7546 49.6788Z" fill="#499557"/>
<path d="M48.7546 58.3867H13.7278C12.565 58.3867 11.6191 59.3282 11.6191 60.4953C11.6191 61.6624 12.5607 62.6039 13.7278 62.6039H48.7589C49.9217 62.6039 50.8675 61.6624 50.8675 60.4953C50.8675 59.3282 49.9174 58.3867 48.7546 58.3867Z" fill="#499557"/>
</svg>
