<?xml version="1.0" standalone="no"?>
<!DOCTYPE svg PUBLIC "-//W3C//DTD SVG 20010904//EN"
 "http://www.w3.org/TR/2001/REC-SVG-20010904/DTD/svg10.dtd">
<svg version="1.0" xmlns="http://www.w3.org/2000/svg"
 width="95.000000pt" height="197.000000pt" viewBox="0 0 95.000000 197.000000"
 preserveAspectRatio="xMidYMid meet">

<g transform="translate(0.000000,197.000000) scale(0.100000,-0.100000)"
fill="#000000" stroke="none">
<path d="M360 1364 c-45 -20 -87 -60 -111 -106 l-19 -37 -88 -3 c-79 -3 -87
-5 -87 -23 0 -18 8 -21 75 -25 l75 -5 5 -85 c8 -119 42 -180 125 -223 52 -27
127 -28 155 -2 19 18 22 18 56 1 76 -36 95 -1 103 184 l6 135 35 0 c23 0 34
-4 33 -12 -2 -7 -10 -108 -19 -224 -15 -180 -15 -212 -3 -220 22 -14 33 -5 41
32 13 62 39 432 30 438 -5 3 -12 15 -16 25 -6 18 -16 19 -231 12 -184 -5 -225
-4 -225 7 0 19 48 61 98 86 74 38 39 79 -38 45z m50 -219 c0 -42 43 -51 83
-17 16 14 17 12 17 -24 -1 -65 -26 -173 -45 -194 -21 -23 -53 -25 -98 -6 -63
26 -101 93 -106 183 -3 71 9 83 84 83 62 0 65 -1 65 -25z m180 -92 c0 -127 -8
-159 -34 -133 -12 12 -13 24 -5 59 5 24 10 77 11 118 0 55 4 73 14 73 11 0 14
-24 14 -117z"/>
</g>
</svg>
