<svg width="80" height="75" viewBox="0 0 80 75" fill="none" xmlns="http://www.w3.org/2000/svg">
<path d="M13.2983 14.6129H48.3295C49.4923 14.6129 50.4381 13.6714 50.4381 12.5043C50.4381 11.3372 49.4966 10.3957 48.3295 10.3957H13.2983C12.1355 10.3957 11.1897 11.3372 11.1897 12.5043C11.1897 13.6714 12.1355 14.6129 13.2983 14.6129Z" fill="#499557"/>
<path d="M13.2983 30.5362H27.8071C28.9699 30.5362 29.9158 29.5947 29.9158 28.4275C29.9158 27.2604 28.9743 26.3189 27.8071 26.3189H13.2983C12.1355 26.3189 11.1897 27.2604 11.1897 28.4275C11.1897 29.5947 12.1355 30.5362 13.2983 30.5362Z" fill="#499557"/>
<path d="M18.7217 48.8284H13.0683C11.9836 48.8284 11.1072 49.7091 11.1072 50.7895V61.7665C11.1072 62.8512 11.9879 63.7277 13.0683 63.7277H18.7217C19.8064 63.7277 20.6828 62.8469 20.6828 61.7665V50.7895C20.6828 49.7091 19.8064 48.8284 18.7217 48.8284Z" fill="#499557"/>
<path d="M58.3736 28.4796C61.1721 30.6056 62.7774 33.838 62.7774 37.348C62.7774 43.483 57.7879 48.4769 51.6485 48.4769C51.1712 48.4769 50.7808 48.8674 50.7808 49.3447C50.7808 49.8219 51.1712 50.2124 51.6485 50.2124C58.7424 50.2124 64.5129 44.4419 64.5129 37.348C64.5129 33.2913 62.6559 29.5556 59.4192 27.0955C59.0374 26.8048 58.4951 26.8786 58.2044 27.2604C57.918 27.6466 57.9918 28.1932 58.3736 28.4796Z" fill="#499557"/>
<path d="M78.2842 62.5302L68.3918 52.6378C68.1532 52.3992 67.7627 52.3992 67.5198 52.6378L66.5739 53.5837L65.0423 52.0564C69.0383 48.4162 71.5461 43.1706 71.5461 37.3524C71.5461 30.0112 67.5501 23.5942 61.6234 20.1449V2.38632C61.6234 1.06733 60.556 0 59.2371 0H2.38632C1.06733 0 0 1.06733 0 2.38632V71.9583C0 73.2773 1.06733 74.3446 2.38632 74.3446H59.2414C60.5604 74.3446 61.6277 73.2773 61.6277 71.9583V54.5555C62.2221 54.2084 62.8035 53.831 63.3545 53.4275L65.0423 55.1152L64.0965 56.0611C63.8578 56.2997 63.8578 56.6902 64.0965 56.9332L73.9888 66.8256C75.1733 68.01 77.0997 68.01 78.2842 66.8256C79.4687 65.6367 79.4687 63.7147 78.2842 62.5302ZM66.7778 37.3524C66.7778 45.6915 59.992 52.4816 51.6486 52.4816C43.3051 52.4816 36.5193 45.6958 36.5193 37.3524C36.5193 30.0936 41.6564 24.0194 48.4856 22.5615C48.6462 22.5485 48.8023 22.5182 48.9542 22.4704C49.8306 22.3142 50.7288 22.2231 51.6486 22.2231C59.992 22.2231 66.7778 29.0089 66.7778 37.3524ZM56.8551 69.572H4.77263V4.77263H56.8551V18.1447C55.1977 17.6935 53.4535 17.4505 51.6529 17.4505C49.5833 17.4505 47.5832 17.7716 45.7045 18.3616H13.2983C12.1355 18.3616 11.1897 19.3031 11.1897 20.4703C11.1897 21.6374 12.1312 22.5789 13.2983 22.5789H38.3373C34.2979 26.2235 31.751 31.4994 31.751 37.3567C31.751 39.0445 31.9636 40.6802 32.3585 42.2421H27.985C26.9003 42.2421 26.0239 43.1229 26.0239 44.2033V61.7709C26.0239 62.8556 26.9046 63.732 27.985 63.732H33.6384C34.7231 63.732 35.5995 62.8512 35.5995 61.7709V49.1017C37.053 51.0845 38.8666 52.781 40.9405 54.113V61.7709C40.9405 62.8556 41.8213 63.732 42.9016 63.732H48.555C49.6397 63.732 50.5162 62.8512 50.5162 61.7709V57.2195C50.8893 57.2412 51.2668 57.2543 51.6442 57.2543C53.4448 57.2543 55.189 57.0113 56.8464 56.5601V69.572H56.8551Z" fill="#499557"/>
</svg>
