<svg xmlns="http://www.w3.org/2000/svg" data-name="Layer 1" width="340.33228" height="331.25347" viewBox="0 0 340.33228 331.25347" xmlns:xlink="http://www.w3.org/1999/xlink"><path d="M609.523,498.06123c41.58344-3.32506,70.3262-55.91534,50.67-92.71037s-79.34948-42.14215-105.23218-9.42633S546.94711,503.06486,609.523,498.06123Z" transform="translate(-429.83386 -284.37327)" fill="#a0fff0"/><path d="M766.44874,413.29236c-6.42042-27.94934-22.9548-52.2661-40.95108-74.10572-23.9939-28.52728-60.03079-42.881-95.6909-50.37458-32.998-8.45536-68.15264-4.59028-99.04432,9.54305-29.50479,12.703-53.98372,35.219-71.45917,61.96215-11.1863,16.3-21.394,33.766-26.07721,53.14-4.78123,19.41684-3.88192,39.54545-1.14225,59.19584,2.56579,22.82588,8.38952,45.62916,21.43409,64.84312,26.99186,40.38273,62.1695,63.19582,109.616,73.00269,24.03482,3.87233,48.72515,6.85367,73.02763,3.98528,26.05675-3.58677,52.38969-13.49679,71.47195-32.05971,2.96813-2.93424,5.90216-5.90492,8.618-9.07528,1.577-2.00511,3.23153-3.37154-.0895-.55322a131.22267,131.22267,0,0,1-22.9011,15.59224c-17.11317,8.37971-36.33011,12.51565-55.05947,13.42624-25.42938.381-48.47028-4.35288-73.82123-10.75646-29.56446-9.56031-51.1392-19.40554-72.552-41.90643-14.04788-15.2532-19.77017-21.22162-28.87912-40.794a105.93877,105.93877,0,0,1-5.55607-17.91444c-.83708-3.05081-2.813-15.5948-3.27585-18.46618-1.79008-14.28037-3.22044-28.76489-1.42354-43.10429,3.75746-22.55651,8.93421-31.57148,21.84154-51.58885,15.98542-26.53923,45.14328-50.52823,69.635-59.07842,34.6338-12.08922,53.04947-12.63584,85.1064-4.79678,26.7208,6.77333,38.50038,10.22435,60.15524,24.9484,15.45437,9.05738,42.70792,47.42414,49.01838,65.42639,9.6528,23.37291,8.59068,52.92693,5.71462,71.57276-10.36542,48.25695-53.48846,70.81666-84.39634,37.034a65.14687,65.14687,0,0,1-7.06571-7.7779c15.43817-14.85043,24.83865-35.06172,34.47781-53.93748-11.9458,16.38393-22.88064,34.84733-39.4082,47.29414-20.93712-29.69616-46.08861-81.13839-88.52887-73.08921-32.89572,10.37373-29.50309,52.94228-10.20772,74.73652,21.21245,25.35031,57.43431,31.56487,86.09862,17.44348,34.68921,48.50991,94.32191,43.89939,122.28809-9.4544C772.36112,478.90692,772.43613,444.45042,766.44874,413.29236ZM564.94958,491.13765c-8.4006-10.95317-11.11982-18.854-10.81976-33.20877.23782-.90975.60521-2.32008,1.0067-3.47809.43218-.823,1.65114-3.21,2.726-4.895.32477-.36355,1.24965-1.42567,2.17793-2.29982a20.84234,20.84234,0,0,1,3.1335-1.81161,16.7926,16.7926,0,0,1,2.19327-.58646,27.20874,27.20874,0,0,1,5.01137.04922c24.444,5.33743,37.75366,34.67025,58.18274,63.1954C605.0542,515.7325,580.18743,508.99732,564.94958,491.13765Z" transform="translate(-429.83386 -284.37327)"/></svg>