<?xml version="1.0" standalone="no"?>
<!DOCTYPE svg PUBLIC "-//W3C//DTD SVG 20010904//EN"
 "http://www.w3.org/TR/2001/REC-SVG-20010904/DTD/svg10.dtd">
<svg version="1.0" xmlns="http://www.w3.org/2000/svg"
 width="96.000000pt" height="199.000000pt" viewBox="0 0 96.000000 199.000000"
 preserveAspectRatio="xMidYMid meet">
<metadata>
Created by potrace 1.16, written by Peter Selinger 2001-2019
</metadata>
<g transform="translate(0.000000,199.000000) scale(0.100000,-0.100000)"
fill="#000000" stroke="none">
<path d="M425 1180 c-33 -33 -62 -60 -65 -60 -3 0 -10 10 -15 23 -25 56 -90
13 -83 -55 4 -48 45 -66 100 -45 l39 16 -41 -77 c-23 -42 -55 -94 -72 -115
-35 -44 -35 -80 0 -85 13 -2 29 2 37 8 11 9 28 9 69 0 54 -11 96 -3 96 19 0 5
17 -9 39 -30 24 -25 48 -39 64 -39 53 0 60 37 48 255 -11 193 -21 235 -56 235
-32 0 -36 -20 -25 -120 5 -47 10 -125 10 -175 l-1 -90 -29 33 c-29 31 -30 36
-30 125 0 50 6 118 14 150 12 50 12 60 -1 72 -23 24 -35 18 -98 -45z"/>
</g>
</svg>
