<?xml version="1.0" standalone="no"?>
<!DOCTYPE svg PUBLIC "-//W3C//DTD SVG 20010904//EN"
 "http://www.w3.org/TR/2001/REC-SVG-20010904/DTD/svg10.dtd">
<svg version="1.0" xmlns="http://www.w3.org/2000/svg"
 width="102.000000pt" height="210.000000pt" viewBox="0 0 102.000000 210.000000"
 preserveAspectRatio="xMidYMid meet">
<metadata>
Created by potrace 1.16, written by Peter Selinger 2001-2019
</metadata>
<g transform="translate(0.000000,210.000000) scale(0.100000,-0.100000)"
fill="#000000" stroke="none">
<path d="M535 1280 c-66 -4 -155 -8 -197 -9 -68 -1 -77 -3 -83 -21 -4 -12 -1
-28 7 -37 11 -14 35 -15 194 -10 l181 6 -12 -47 c-10 -37 -16 -46 -31 -44 -72
14 -101 12 -139 -10 -60 -35 -105 -100 -105 -152 0 -44 22 -76 51 -76 39 0 79
74 65 118 -12 37 68 78 93 48 7 -8 16 -61 20 -118 4 -57 11 -109 15 -116 11
-18 53 -14 61 6 3 9 11 71 16 137 5 66 16 150 25 188 18 73 19 74 103 79 51 3
73 26 52 52 -15 18 -86 19 -316 6z"/>
</g>
</svg>
