<?xml version="1.0" standalone="no"?>
<!DOCTYPE svg PUBLIC "-//W3C//DTD SVG 20010904//EN"
 "http://www.w3.org/TR/2001/REC-SVG-20010904/DTD/svg10.dtd">
<svg version="1.0" xmlns="http://www.w3.org/2000/svg"
 width="112.000000pt" height="232.000000pt" viewBox="0 0 112.000000 232.000000"
 preserveAspectRatio="xMidYMid meet">
<metadata>
Created by potrace 1.16, written by Peter Selinger 2001-2019
</metadata>
<g transform="translate(0.000000,232.000000) scale(0.100000,-0.100000)"
fill="#000000" stroke="none">
<path d="M342 1538 c-16 -16 -15 -43 1 -55 6 -5 84 -22 172 -37 150 -27 205
-41 205 -55 -1 -26 -24 -31 -155 -33 l-140 -3 -3 -28 c-3 -23 1 -28 27 -33 24
-5 29 -10 21 -19 -24 -29 37 -161 102 -222 74 -67 176 -87 235 -45 80 57 97
230 24 240 -12 2 -40 -8 -63 -23 -22 -15 -42 -24 -45 -22 -2 3 -7 24 -10 46
l-6 41 69 0 c80 0 97 8 92 41 -2 20 -10 25 -40 27 -36 3 -38 5 -38 36 0 36
-27 68 -73 85 -21 8 -342 71 -361 71 -1 0 -7 -5 -14 -12z m298 -288 c0 -57 24
-108 55 -120 21 -8 37 -6 70 9 l43 19 -9 -30 c-19 -68 -71 -86 -139 -49 -47
25 -85 74 -114 149 l-25 62 60 0 59 0 0 -40z"/>
</g>
</svg>
