<?xml version="1.0" standalone="no"?>
<!DOCTYPE svg PUBLIC "-//W3C//DTD SVG 20010904//EN"
 "http://www.w3.org/TR/2001/REC-SVG-20010904/DTD/svg10.dtd">
<svg version="1.0" xmlns="http://www.w3.org/2000/svg"
 width="112.000000pt" height="232.000000pt" viewBox="0 0 112.000000 232.000000"
 preserveAspectRatio="xMidYMid meet">
<metadata>
Created by potrace 1.16, written by Peter Selinger 2001-2019
</metadata>
<g transform="translate(0.000000,232.000000) scale(0.100000,-0.100000)"
fill="#000000" stroke="none">
<path d="M398 1585 c-130 -68 -115 -170 30 -211 129 -36 153 -46 150 -62 -4
-23 -39 -30 -145 -31 -69 -1 -95 -5 -107 -17 -38 -37 -6 -65 65 -57 46 5 47 5
42 -20 -4 -19 1 -29 21 -42 14 -9 30 -14 36 -10 19 12 10 -12 -20 -53 -33 -46
-36 -62 -18 -80 20 -20 42 -14 103 30 43 30 56 36 51 22 -65 -159 -59 -237 20
-270 72 -30 99 11 39 59 -19 15 -35 37 -35 48 0 11 18 68 40 126 43 115 46
133 28 151 -16 16 -43 15 -77 -2 -27 -15 -27 -14 -23 15 4 26 8 29 42 29 64 0
94 52 42 75 -16 7 -22 18 -22 41 0 49 -41 75 -180 109 -35 9 -73 21 -83 27
-18 9 -18 10 0 30 10 12 37 29 60 40 49 22 57 31 48 58 -9 27 -48 25 -107 -5z"/>
</g>
</svg>
